<?xml version="1.0" encoding="utf-8"?>
<!-- Generator: Adobe Illustrator 25.4.1, SVG Export Plug-In . SVG Version: 6.00 Build 0)  -->
<svg version="1.1" id="Layer_1" xmlns="http://www.w3.org/2000/svg" xmlns:xlink="http://www.w3.org/1999/xlink" x="0px" y="0px"
	 viewBox="0 0 354 75" style="enable-background:new 0 0 354 75;" xml:space="preserve">
<style type="text/css">
	.st0{fill:#FFFFFF;}
</style>
<g>
	<path class="st0" d="M45.8,62.5L41.6,52c-4.3-0.2-8.4-0.4-12.7-0.4c-4,0-7.9,0.2-11.9,0.4c-3.2,7.6-6.3,15.8-7.9,21.4
		c-1.3-0.2-3.2-0.6-4.7-0.6c-1.7,0-3.1,0.4-4.4,0.6l11.5-25.5c10-22.3,15.7-35.2,18.1-43.3c1.1,0.3,2.1,0.5,3.3,0.5
		c1.1,0,2.1-0.2,3.2-0.5C40.7,18.2,46.7,32,50.2,40.3c3.8,8.6,10.3,23.5,14.7,33.1c-1.5-0.1-4.9-0.6-7.7-0.6c-2.8,0-5.5,0.5-7.3,0.6
		L45.8,62.5z M29.5,21.5L19.4,45.9c3.5,0.1,6.8,0.4,10.3,0.4c3.1,0,6-0.2,9.1-0.4L29.5,21.5z"/>
	<path class="st0" d="M77.3,0.8c3.3,0,4.3-0.3,6.3-0.6c-1,10.7-1,26.2-1,36.4c0,2-0.3,25.7,0.9,36.9c-2-0.2-4-0.6-6-0.6
		c-1.7,0-3.4,0.2-6.8,0.6c1.1-7.6,1-37,1-39.3c0-18.4-0.5-26.2-1.2-33.9C72.9,0.6,74.1,0.8,77.3,0.8"/>
	<path class="st0" d="M108,8.9c-0.4,1.4-0.4,3.1-0.7,17.9c4.4,0,5,0,6.8-0.1l3.7-0.3c-0.2,0.9-0.3,1.5-0.3,2.5c0,1.1,0.1,2,0.3,3
		c-4.2-0.4-5.3-0.4-10.8-0.4c0,4.2-0.3,14.8-0.3,19c0,14.6,0.5,18.9,7.1,18.9c2.2,0,4-0.7,5.9-2.1c-0.1,0.5-0.4,1.6-0.4,2.4
		c0,1,0.2,1.6,0.4,2.3c-2.9,1.5-7.9,2.9-11.2,2.9c-2.8,0-6.6-0.8-8.9-2.6c-3.4-2.7-4.2-7.2-4.2-11.2c0-4.3,0.6-21.6,0.6-29.6h-3
		c-1.9,0-3.5,0.2-4.6,0.3c0.1-0.5,0.3-1.2,0.3-2.2c0-1.1-0.1-2-0.3-3.2c0.7,0.1,2.1,0.4,3.4,0.4h4.3c0-2.8,0-6.7-0.2-11.3
		c5.6-2.6,9.5-5.3,11.3-6.9L108,8.9z"/>
	<path class="st0" d="M141.9,46.4c5.8-1.6,6.6-1.9,7.1-2.8c0.3-0.6,0.4-1.3,0.4-2c0-7.5-4.2-10.5-9.6-10.5c-7.5,0-10.1,4.6-10.7,7
		c-0.5-0.1-1-0.2-1.5-0.2c-0.5,0-1.1,0.1-1.6,0.2c0.3-1.9,0.5-3.2,0.5-4.8c0-0.9,0-1.8-0.1-2.7c7.5-4.5,10.6-5.5,15.7-5.5
		c10.7,0,18,4.8,18,14.8c0,3.7-0.3,13.6-0.3,16.9c0,9.7,0.1,12.1,3.5,12.1c1,0,1.9-0.4,2.8-0.8c-0.2,0.6-0.4,1.2-0.4,1.8
		c0,0.6,0.2,1.2,0.4,1.8c-2.6,1-5.6,2.2-8.4,2.2c-5.8,0-7-2.9-8.2-6c-3.1,4.1-8.1,6.7-13.2,6.7c-11.5,0-13.6-8.2-13.6-12.1
		c0-11,6.7-12.8,15.9-15.2L141.9,46.4z M149.1,48.9c-11.3,3-15.3,4.1-15.3,11.2c0,5.2,2.6,8.5,6.5,8.5c5.3,0,8.8-4.3,8.8-9.4V48.9z"
		/>
	<path class="st0" d="M188.3,11.9c6.5,13.3,9.3,18.6,18.7,35.4l5.3,9.5l3.7-6.4c9.3-16.3,13.6-24.5,23.7-44.7
		c0.7,0.2,1.5,0.3,2.2,0.3c0.7,0,1.4-0.1,2.1-0.3l0.8,8.2c1.1,11.7,2.4,22.5,4,34.4c0.8,5.9,2.9,20.3,4,25.2
		c-2.4-0.3-5.7-0.6-7.1-0.6c-1.9,0-3.7,0.2-6.7,0.6l-0.3-3.7c-0.2-2-0.7-10.8-0.9-12.6c-0.5-4.5-2.9-24.5-3.2-28.7
		c-6.6,11.3-17.7,31.4-23.5,44.9c-0.7-0.1-1.3-0.2-2-0.2c-0.6,0-1.3,0.1-1.9,0.2c-3.8-7.5-6.2-11.7-13.6-26
		c-1.5-2.9-8.5-15.3-9.9-17.9c-1.8,13.8-3.5,29.1-4.1,43.9c-1.8-0.4-3.4-0.6-4.5-0.6c-1.6,0-2.9,0.3-4.2,0.6l0.6-3.1
		c2.4-12.3,8.3-53.3,9.5-64.7c0.8,0.2,1.5,0.3,2.3,0.3c0.7,0,1.5-0.2,2.2-0.3L188.3,11.9z"/>
	<path class="st0" d="M268.4,50.1c0,3.7,0,18.7,15.7,18.7c4.4,0,10.8-2.5,14-6.2l1.1,0.7c-0.3,0.7-0.6,1.4-0.8,2.1l-0.9,4.2
		c-0.7,0.8-7.1,5-16.6,5c-3.7,0-12.5-1-17.9-6.5c-6.5-6.6-6.6-15.4-6.6-18.9c0-16.4,11.3-23.9,22.9-23.9c3.7,0,13.6,0,18.6,9
		c1.7,3.2,3.2,8.3,2.9,15.8H268.4z M289.5,45.3c0-4.8,0-16-9.9-16c-10.2,0-10.8,12.3-11,16H289.5z"/>
	<path class="st0" d="M342.9,66.6c-2.4,3.5-7.3,8.2-15,8.2c-12.9,0-21.6-10.8-21.6-24.1c0-16.5,10-25.2,22.1-25.2
		c7.3,0,10.8,3.2,14.1,6.5c0-12.7-0.2-23.6-1.2-31.8c2.2,0.4,4.2,0.6,7,0.6c2.1,0,4-0.2,5.6-0.6c-0.7,11.8-1.1,23.6-1.1,35.4
		c0,1.6,0.2,31.9,1.1,37.9c-1-0.2-3.2-0.6-5.6-0.6c-2.5,0-4.2,0.4-5.7,0.6L342.9,66.6z M342.5,49.6c0-9.4-2.4-18.9-11.9-18.9
		c-9.8,0-12.1,10.5-12.1,18c0,7.6,1.5,20.2,11.7,20.2C337.6,68.9,342.5,62.7,342.5,49.6"/>
</g>
</svg>
