<?xml version="1.0" encoding="UTF-8"?>
<svg width="120" height="50" viewBox="0 0 120 50" xmlns="http://www.w3.org/2000/svg">
  <g fill="#3D4852">
    <path d="M0 15.5v25h7.5v-10.8c0-3.2 1.8-5.2 4.6-5.2 2.6 0 4.2 1.7 4.2 4.5v11.5h7.5V27.8c0-5.9-3.5-9.8-8.9-9.8-3.2 0-5.7 1.4-7.4 3.8V8.5H0v7z"/>
    <path d="M34.8 29.5c0 6.6 5.1 11.5 12.1 11.5s12.1-4.9 12.1-11.5S53.9 18 46.9 18s-12.1 4.9-12.1 11.5zm7.5 0c0-2.8 1.8-4.8 4.6-4.8s4.6 2 4.6 4.8-1.8 4.8-4.6 4.8-4.6-2-4.6-4.8z"/>
    <path d="M69.5 32.5c0 2.2 1.6 3.5 4.3 3.5 1.8 0 3.1-.5 4.1-1.4.4 1 1.2 1.4 2.5 1.4h4.1v-5.1h-1.3c-.6 0-.9-.3-.9-.9v-6.8c0-3.5-3.2-5.2-7.9-5.2-4.9 0-8.1 1.9-8.6 5.2h6.8c.2-.9 1.1-1.3 2.2-1.3 1.2 0 1.9.5 1.9 1.4v.8l-3.9.5c-4.7.6-7.3 2.4-7.3 5.9zm7.5-1.2c0-.9.7-1.4 2-1.6l2.5-.3v1.1c0 1.6-1.1 2.5-2.6 2.5-1.2 0-1.9-.6-1.9-1.7z"/>
    <path d="M94.8 41c3.2 0 5.7-1.2 7.4-3.2 0 1.5.1 2.2.3 2.7h7c-.3-1-.4-2.4-.4-4.5V25.8c0-5.5-3.6-7.8-9-7.8-5.8 0-9.3 2.7-9.8 6.5h7.2c.3-1.2 1.3-1.8 2.8-1.8 1.7 0 2.5.8 2.5 2.3v.5c-6.3.1-12.5 1.5-12.5 7.3 0 3.8 2.9 6.2 7.5 6.2zm2.9-5.5c-1.4 0-2.2-.7-2.2-1.8 0-1.5 1.4-2.2 4.9-2.3v1.8c0 1.5-1.2 2.3-2.7 2.3z"/>
  </g>
  <circle cx="113" cy="35" r="5" fill="#F5793B"/>
</svg>